<svg width="102" height="24" viewBox="0 0 102 24" fill="none" xmlns="http://www.w3.org/2000/svg">
<g clip-path="url(#clip0_14_2002)">
<g clip-path="url(#clip1_14_2002)">
<path d="M21.6562 12C21.6562 5.57812 16.8867 0.375 11 0.375C5.11328 0.375 0.34375 5.57812 0.34375 12C0.34375 17.8022 4.24059 22.6116 9.33496 23.4844V15.3605H6.62793V12H9.33496V9.43875C9.33496 6.52547 10.9248 4.91625 13.3598 4.91625C14.526 4.91625 15.7455 5.14313 15.7455 5.14313V8.0025H14.4014C13.078 8.0025 12.665 8.89875 12.665 9.81797V12H15.6204L15.1478 15.3605H12.665V23.4844C17.7594 22.6116 21.6562 17.8022 21.6562 12Z" fill="white"/>
</g>
<path d="M32.8984 18H31.5703V6.57812H37.9375V7.75781H32.8984V11.9375H37.6328V13.1172H32.8984V18ZM44.9062 18L44.6484 16.7812H44.5859C44.1589 17.3177 43.7318 17.6823 43.3047 17.875C42.8828 18.0625 42.3542 18.1562 41.7188 18.1562C40.8698 18.1562 40.2031 17.9375 39.7188 17.5C39.2396 17.0625 39 16.4401 39 15.6328C39 13.9036 40.3828 12.9974 43.1484 12.9141L44.6016 12.8672V12.3359C44.6016 11.6641 44.4557 11.1693 44.1641 10.8516C43.8776 10.5286 43.4167 10.3672 42.7812 10.3672C42.0677 10.3672 41.2604 10.5859 40.3594 11.0234L39.9609 10.0312C40.3828 9.80208 40.8438 9.6224 41.3438 9.49219C41.849 9.36198 42.3542 9.29688 42.8594 9.29688C43.8802 9.29688 44.6354 9.52344 45.125 9.97656C45.6198 10.4297 45.8672 11.1562 45.8672 12.1562V18H44.9062ZM41.9766 17.0859C42.7839 17.0859 43.4167 16.8646 43.875 16.4219C44.3385 15.9792 44.5703 15.3594 44.5703 14.5625V13.7891L43.2734 13.8438C42.2422 13.8802 41.4974 14.0417 41.0391 14.3281C40.5859 14.6094 40.3594 15.0495 40.3594 15.6484C40.3594 16.1172 40.5 16.474 40.7812 16.7188C41.0677 16.9635 41.4661 17.0859 41.9766 17.0859ZM51.9688 18.1562C50.7292 18.1562 49.7682 17.776 49.0859 17.0156C48.4089 16.25 48.0703 15.1693 48.0703 13.7734C48.0703 12.3411 48.4141 11.2344 49.1016 10.4531C49.7943 9.67188 50.7786 9.28125 52.0547 9.28125C52.4661 9.28125 52.8776 9.32552 53.2891 9.41406C53.7005 9.5026 54.0234 9.60677 54.2578 9.72656L53.8594 10.8281C53.5729 10.7135 53.2604 10.6198 52.9219 10.5469C52.5833 10.4688 52.2839 10.4297 52.0234 10.4297C50.2839 10.4297 49.4141 11.5391 49.4141 13.7578C49.4141 14.8099 49.625 15.6172 50.0469 16.1797C50.474 16.7422 51.1042 17.0234 51.9375 17.0234C52.651 17.0234 53.3828 16.8698 54.1328 16.5625V17.7109C53.5599 18.0078 52.8385 18.1562 51.9688 18.1562ZM59.7891 18.1562C58.5234 18.1562 57.5234 17.7708 56.7891 17C56.0599 16.2292 55.6953 15.1589 55.6953 13.7891C55.6953 12.4089 56.0339 11.3125 56.7109 10.5C57.3932 9.6875 58.3073 9.28125 59.4531 9.28125C60.526 9.28125 61.375 9.63542 62 10.3438C62.625 11.0469 62.9375 11.9766 62.9375 13.1328V13.9531H57.0391C57.0651 14.9583 57.3177 15.7214 57.7969 16.2422C58.2812 16.763 58.9609 17.0234 59.8359 17.0234C60.7578 17.0234 61.6693 16.8307 62.5703 16.4453V17.6016C62.112 17.7995 61.6771 17.9401 61.2656 18.0234C60.8594 18.112 60.3672 18.1562 59.7891 18.1562ZM59.4375 10.3672C58.75 10.3672 58.2005 10.5911 57.7891 11.0391C57.3828 11.487 57.1432 12.1068 57.0703 12.8984H61.5469C61.5469 12.0807 61.3646 11.4557 61 11.0234C60.6354 10.5859 60.1146 10.3672 59.4375 10.3672ZM69.1406 9.29688C70.2656 9.29688 71.138 9.68229 71.7578 10.4531C72.3828 11.2188 72.6953 12.3047 72.6953 13.7109C72.6953 15.1172 72.3802 16.2109 71.75 16.9922C71.125 17.7682 70.2552 18.1562 69.1406 18.1562C68.5833 18.1562 68.0729 18.0547 67.6094 17.8516C67.151 17.6432 66.7656 17.3255 66.4531 16.8984H66.3594L66.0859 18H65.1562V5.84375H66.4531V8.79688C66.4531 9.45833 66.4323 10.0521 66.3906 10.5781H66.4531C67.0573 9.72396 67.9531 9.29688 69.1406 9.29688ZM68.9531 10.3828C68.0677 10.3828 67.4297 10.638 67.0391 11.1484C66.6484 11.6536 66.4531 12.5078 66.4531 13.7109C66.4531 14.9141 66.6536 15.776 67.0547 16.2969C67.4557 16.8125 68.099 17.0703 68.9844 17.0703C69.7812 17.0703 70.375 16.7812 70.7656 16.2031C71.1562 15.6198 71.3516 14.7839 71.3516 13.6953C71.3516 12.5807 71.1562 11.75 70.7656 11.2031C70.375 10.6562 69.7708 10.3828 68.9531 10.3828ZM82.3594 13.7109C82.3594 15.1068 82.0078 16.1979 81.3047 16.9844C80.6016 17.7656 79.6302 18.1562 78.3906 18.1562C77.625 18.1562 76.9453 17.9766 76.3516 17.6172C75.7578 17.2578 75.2995 16.7422 74.9766 16.0703C74.6536 15.3984 74.4922 14.612 74.4922 13.7109C74.4922 12.3151 74.8411 11.2292 75.5391 10.4531C76.237 9.67188 77.2057 9.28125 78.4453 9.28125C79.6432 9.28125 80.5938 9.67969 81.2969 10.4766C82.0052 11.2734 82.3594 12.3516 82.3594 13.7109ZM75.8359 13.7109C75.8359 14.8047 76.0547 15.638 76.4922 16.2109C76.9297 16.7839 77.5729 17.0703 78.4219 17.0703C79.2708 17.0703 79.9141 16.7865 80.3516 16.2188C80.7943 15.6458 81.0156 14.8099 81.0156 13.7109C81.0156 12.6224 80.7943 11.7969 80.3516 11.2344C79.9141 10.6667 79.2656 10.3828 78.4062 10.3828C77.5573 10.3828 76.9167 10.6615 76.4844 11.2188C76.0521 11.776 75.8359 12.6068 75.8359 13.7109ZM92.0312 13.7109C92.0312 15.1068 91.6797 16.1979 90.9766 16.9844C90.2734 17.7656 89.3021 18.1562 88.0625 18.1562C87.2969 18.1562 86.6172 17.9766 86.0234 17.6172C85.4297 17.2578 84.9714 16.7422 84.6484 16.0703C84.3255 15.3984 84.1641 14.612 84.1641 13.7109C84.1641 12.3151 84.513 11.2292 85.2109 10.4531C85.9089 9.67188 86.8776 9.28125 88.1172 9.28125C89.3151 9.28125 90.2656 9.67969 90.9688 10.4766C91.6771 11.2734 92.0312 12.3516 92.0312 13.7109ZM85.5078 13.7109C85.5078 14.8047 85.7266 15.638 86.1641 16.2109C86.6016 16.7839 87.2448 17.0703 88.0938 17.0703C88.9427 17.0703 89.5859 16.7865 90.0234 16.2188C90.4661 15.6458 90.6875 14.8099 90.6875 13.7109C90.6875 12.6224 90.4661 11.7969 90.0234 11.2344C89.5859 10.6667 88.9375 10.3828 88.0781 10.3828C87.2292 10.3828 86.5885 10.6615 86.1562 11.2188C85.724 11.776 85.5078 12.6068 85.5078 13.7109ZM95.5938 13.6172C95.8177 13.2995 96.1589 12.8828 96.6172 12.3672L99.3828 9.4375H100.922L97.4531 13.0859L101.164 18H99.5938L96.5703 13.9531L95.5938 14.7969V18H94.3125V5.84375H95.5938V12.2891C95.5938 12.5755 95.5729 13.0182 95.5312 13.6172H95.5938Z" fill="white"/>
</g>
<defs>
<clipPath id="clip0_14_2002">
<rect width="102" height="24" fill="white"/>
</clipPath>
<clipPath id="clip1_14_2002">
<rect width="22" height="24" fill="white"/>
</clipPath>
</defs>
</svg>
