<svg width="106" height="24" viewBox="0 0 106 24" fill="none" xmlns="http://www.w3.org/2000/svg">
<g clip-path="url(#clip0_14_2005)">
<g clip-path="url(#clip1_14_2005)">
<path d="M11.0049 6.60952C7.88169 6.60952 5.36249 9.01421 5.36249 11.9955C5.36249 14.9767 7.88169 17.3814 11.0049 17.3814C14.1281 17.3814 16.6473 14.9767 16.6473 11.9955C16.6473 9.01421 14.1281 6.60952 11.0049 6.60952ZM11.0049 15.497C8.9866 15.497 7.3366 13.9267 7.3366 11.9955C7.3366 10.0642 8.98169 8.4939 11.0049 8.4939C13.0281 8.4939 14.6732 10.0642 14.6732 11.9955C14.6732 13.9267 13.0232 15.497 11.0049 15.497ZM18.1942 6.38921C18.1942 7.08765 17.6049 7.64546 16.8781 7.64546C16.1464 7.64546 15.562 7.08296 15.562 6.38921C15.562 5.69546 16.1513 5.13296 16.8781 5.13296C17.6049 5.13296 18.1942 5.69546 18.1942 6.38921ZM21.9312 7.66421C21.8477 5.9814 21.4451 4.49077 20.1536 3.26265C18.8669 2.03452 17.3053 1.65015 15.5424 1.56577C13.7254 1.46733 8.27946 1.46733 6.46249 1.56577C4.70446 1.64546 3.14285 2.02983 1.85134 3.25796C0.559819 4.48608 0.162051 5.97671 0.0736587 7.65952C-0.0294662 9.3939 -0.0294662 14.5923 0.0736587 16.3267C0.157141 18.0095 0.559819 19.5001 1.85134 20.7283C3.14285 21.9564 4.69955 22.3408 6.46249 22.4251C8.27946 22.5236 13.7254 22.5236 15.5424 22.4251C17.3053 22.3455 18.8669 21.9611 20.1536 20.7283C21.4402 19.5001 21.8428 18.0095 21.9312 16.3267C22.0344 14.5923 22.0344 9.39858 21.9312 7.66421ZM19.5839 18.1876C19.2009 19.1064 18.4594 19.8142 17.4919 20.1845C16.0433 20.733 12.6058 20.6064 11.0049 20.6064C9.40401 20.6064 5.9616 20.7283 4.51785 20.1845C3.55535 19.8189 2.81384 19.1111 2.42589 18.1876C1.85134 16.8048 1.98393 13.5236 1.98393 11.9955C1.98393 10.4673 1.85625 7.1814 2.42589 5.80327C2.80892 4.88452 3.55044 4.17671 4.51785 3.8064C5.96651 3.25796 9.40401 3.38452 11.0049 3.38452C12.6058 3.38452 16.0482 3.26265 17.4919 3.8064C18.4544 4.17202 19.196 4.87983 19.5839 5.80327C20.1585 7.18608 20.0259 10.4673 20.0259 11.9955C20.0259 13.5236 20.1585 16.8095 19.5839 18.1876Z" fill="white"/>
</g>
<path d="M31.5703 18V6.57812H32.8984V18H31.5703ZM41.7031 18V12.4609C41.7031 11.763 41.5443 11.2422 41.2266 10.8984C40.9089 10.5547 40.4115 10.3828 39.7344 10.3828C38.8385 10.3828 38.1823 10.625 37.7656 11.1094C37.349 11.5938 37.1406 12.3932 37.1406 13.5078V18H35.8438V9.4375H36.8984L37.1094 10.6094H37.1719C37.4375 10.1875 37.8099 9.86198 38.2891 9.63281C38.7682 9.39844 39.3021 9.28125 39.8906 9.28125C40.9219 9.28125 41.6979 9.53125 42.2188 10.0312C42.7396 10.526 43 11.3203 43 12.4141V18H41.7031ZM51.1953 15.6641C51.1953 16.4609 50.8984 17.0755 50.3047 17.5078C49.7109 17.9401 48.8776 18.1562 47.8047 18.1562C46.6693 18.1562 45.7839 17.9766 45.1484 17.6172V16.4141C45.5599 16.6224 46 16.7865 46.4688 16.9062C46.9427 17.026 47.3984 17.0859 47.8359 17.0859C48.513 17.0859 49.0339 16.9792 49.3984 16.7656C49.763 16.5469 49.9453 16.2161 49.9453 15.7734C49.9453 15.4401 49.7995 15.1562 49.5078 14.9219C49.2214 14.6823 48.6589 14.401 47.8203 14.0781C47.0234 13.7812 46.4557 13.5234 46.1172 13.3047C45.7839 13.0807 45.5339 12.8281 45.3672 12.5469C45.2057 12.2656 45.125 11.9297 45.125 11.5391C45.125 10.8411 45.4089 10.2917 45.9766 9.89062C46.5443 9.48438 47.3229 9.28125 48.3125 9.28125C49.2344 9.28125 50.1354 9.46875 51.0156 9.84375L50.5547 10.8984C49.6953 10.5443 48.9167 10.3672 48.2188 10.3672C47.6042 10.3672 47.1406 10.4635 46.8281 10.6562C46.5156 10.849 46.3594 11.1146 46.3594 11.4531C46.3594 11.6823 46.4167 11.8776 46.5312 12.0391C46.651 12.2005 46.8411 12.3542 47.1016 12.5C47.362 12.6458 47.862 12.8568 48.6016 13.1328C49.6172 13.5026 50.3021 13.875 50.6562 14.25C51.0156 14.625 51.1953 15.0964 51.1953 15.6641ZM56.0781 17.0859C56.3073 17.0859 56.5286 17.0703 56.7422 17.0391C56.9557 17.0026 57.125 16.9661 57.25 16.9297V17.9219C57.1094 17.9896 56.901 18.0443 56.625 18.0859C56.3542 18.1328 56.1094 18.1562 55.8906 18.1562C54.2344 18.1562 53.4062 17.2839 53.4062 15.5391V10.4453H52.1797V9.82031L53.4062 9.28125L53.9531 7.45312H54.7031V9.4375H57.1875V10.4453H54.7031V15.4844C54.7031 16 54.8255 16.3958 55.0703 16.6719C55.3151 16.9479 55.651 17.0859 56.0781 17.0859ZM64.2344 18L63.9766 16.7812H63.9141C63.487 17.3177 63.0599 17.6823 62.6328 17.875C62.2109 18.0625 61.6823 18.1562 61.0469 18.1562C60.1979 18.1562 59.5312 17.9375 59.0469 17.5C58.5677 17.0625 58.3281 16.4401 58.3281 15.6328C58.3281 13.9036 59.7109 12.9974 62.4766 12.9141L63.9297 12.8672V12.3359C63.9297 11.6641 63.7839 11.1693 63.4922 10.8516C63.2057 10.5286 62.7448 10.3672 62.1094 10.3672C61.3958 10.3672 60.5885 10.5859 59.6875 11.0234L59.2891 10.0312C59.7109 9.80208 60.1719 9.6224 60.6719 9.49219C61.1771 9.36198 61.6823 9.29688 62.1875 9.29688C63.2083 9.29688 63.9635 9.52344 64.4531 9.97656C64.9479 10.4297 65.1953 11.1562 65.1953 12.1562V18H64.2344ZM61.3047 17.0859C62.112 17.0859 62.7448 16.8646 63.2031 16.4219C63.6667 15.9792 63.8984 15.3594 63.8984 14.5625V13.7891L62.6016 13.8438C61.5703 13.8802 60.8255 14.0417 60.3672 14.3281C59.9141 14.6094 59.6875 15.0495 59.6875 15.6484C59.6875 16.1172 59.8281 16.474 60.1094 16.7188C60.3958 16.9635 60.7943 17.0859 61.3047 17.0859ZM74.8828 9.4375V10.2578L73.2969 10.4453C73.4427 10.6276 73.5729 10.8672 73.6875 11.1641C73.8021 11.4557 73.8594 11.7865 73.8594 12.1562C73.8594 12.9948 73.5729 13.6641 73 14.1641C72.4271 14.6641 71.6406 14.9141 70.6406 14.9141C70.3854 14.9141 70.1458 14.8932 69.9219 14.8516C69.3698 15.1432 69.0938 15.5104 69.0938 15.9531C69.0938 16.1875 69.1901 16.362 69.3828 16.4766C69.5755 16.5859 69.9062 16.6406 70.375 16.6406H71.8906C72.8177 16.6406 73.5286 16.8359 74.0234 17.2266C74.5234 17.6172 74.7734 18.1849 74.7734 18.9297C74.7734 19.8776 74.3932 20.599 73.6328 21.0938C72.8724 21.5938 71.763 21.8438 70.3047 21.8438C69.1849 21.8438 68.3203 21.6354 67.7109 21.2188C67.1068 20.8021 66.8047 20.2135 66.8047 19.4531C66.8047 18.9323 66.9714 18.4818 67.3047 18.1016C67.638 17.7214 68.1068 17.4635 68.7109 17.3281C68.4922 17.2292 68.3073 17.0755 68.1562 16.8672C68.0104 16.6589 67.9375 16.4167 67.9375 16.1406C67.9375 15.8281 68.0208 15.5547 68.1875 15.3203C68.3542 15.0859 68.6172 14.8594 68.9766 14.6406C68.5339 14.4583 68.1719 14.1484 67.8906 13.7109C67.6146 13.2734 67.4766 12.7734 67.4766 12.2109C67.4766 11.2734 67.7578 10.5521 68.3203 10.0469C68.8828 9.53646 69.6797 9.28125 70.7109 9.28125C71.1589 9.28125 71.5625 9.33333 71.9219 9.4375H74.8828ZM68.0547 19.4375C68.0547 19.901 68.25 20.2526 68.6406 20.4922C69.0312 20.7318 69.5911 20.8516 70.3203 20.8516C71.4089 20.8516 72.2135 20.6875 72.7344 20.3594C73.2604 20.0365 73.5234 19.5964 73.5234 19.0391C73.5234 18.5755 73.3802 18.2526 73.0938 18.0703C72.8073 17.8932 72.2682 17.8047 71.4766 17.8047H69.9219C69.3333 17.8047 68.875 17.9453 68.5469 18.2266C68.2188 18.5078 68.0547 18.9115 68.0547 19.4375ZM68.7578 12.1797C68.7578 12.7786 68.9271 13.2318 69.2656 13.5391C69.6042 13.8464 70.0755 14 70.6797 14C71.9453 14 72.5781 13.3854 72.5781 12.1562C72.5781 10.8698 71.9375 10.2266 70.6562 10.2266C70.0469 10.2266 69.5781 10.3906 69.25 10.7188C68.9219 11.0469 68.7578 11.5339 68.7578 12.1797ZM80.5469 9.28125C80.9271 9.28125 81.2682 9.3125 81.5703 9.375L81.3906 10.5781C81.0365 10.5 80.724 10.4609 80.4531 10.4609C79.7604 10.4609 79.1667 10.7422 78.6719 11.3047C78.1823 11.8672 77.9375 12.5677 77.9375 13.4062V18H76.6406V9.4375H77.7109L77.8594 11.0234H77.9219C78.2396 10.4661 78.6224 10.0365 79.0703 9.73438C79.5182 9.43229 80.0104 9.28125 80.5469 9.28125ZM88.4375 18L88.1797 16.7812H88.1172C87.6901 17.3177 87.263 17.6823 86.8359 17.875C86.4141 18.0625 85.8854 18.1562 85.25 18.1562C84.401 18.1562 83.7344 17.9375 83.25 17.5C82.7708 17.0625 82.5312 16.4401 82.5312 15.6328C82.5312 13.9036 83.9141 12.9974 86.6797 12.9141L88.1328 12.8672V12.3359C88.1328 11.6641 87.987 11.1693 87.6953 10.8516C87.4089 10.5286 86.9479 10.3672 86.3125 10.3672C85.599 10.3672 84.7917 10.5859 83.8906 11.0234L83.4922 10.0312C83.9141 9.80208 84.375 9.6224 84.875 9.49219C85.3802 9.36198 85.8854 9.29688 86.3906 9.29688C87.4115 9.29688 88.1667 9.52344 88.6562 9.97656C89.151 10.4297 89.3984 11.1562 89.3984 12.1562V18H88.4375ZM85.5078 17.0859C86.3151 17.0859 86.9479 16.8646 87.4062 16.4219C87.8698 15.9792 88.1016 15.3594 88.1016 14.5625V13.7891L86.8047 13.8438C85.7734 13.8802 85.0286 14.0417 84.5703 14.3281C84.1172 14.6094 83.8906 15.0495 83.8906 15.6484C83.8906 16.1172 84.0312 16.474 84.3125 16.7188C84.599 16.9635 84.9974 17.0859 85.5078 17.0859ZM102.992 18V12.4297C102.992 11.7474 102.846 11.237 102.555 10.8984C102.263 10.5547 101.81 10.3828 101.195 10.3828C100.388 10.3828 99.7917 10.6146 99.4062 11.0781C99.0208 11.5417 98.8281 12.2552 98.8281 13.2188V18H97.5312V12.4297C97.5312 11.7474 97.3854 11.237 97.0938 10.8984C96.8021 10.5547 96.3464 10.3828 95.7266 10.3828C94.9141 10.3828 94.3177 10.6276 93.9375 11.1172C93.5625 11.6016 93.375 12.3984 93.375 13.5078V18H92.0781V9.4375H93.1328L93.3438 10.6094H93.4062C93.651 10.1927 93.9948 9.86719 94.4375 9.63281C94.8854 9.39844 95.3854 9.28125 95.9375 9.28125C97.276 9.28125 98.151 9.76562 98.5625 10.7344H98.625C98.8802 10.2865 99.25 9.93229 99.7344 9.67188C100.219 9.41146 100.771 9.28125 101.391 9.28125C102.359 9.28125 103.083 9.53125 103.562 10.0312C104.047 10.526 104.289 11.3203 104.289 12.4141V18H102.992Z" fill="white"/>
</g>
<defs>
<clipPath id="clip0_14_2005">
<rect width="106" height="24" fill="white"/>
</clipPath>
<clipPath id="clip1_14_2005">
<rect width="22" height="24" fill="white"/>
</clipPath>
</defs>
</svg>
