<svg width="100" height="24" viewBox="0 0 100 24" fill="none" xmlns="http://www.w3.org/2000/svg">
<g clip-path="url(#clip0_14_1997)">
<g clip-path="url(#clip1_14_1997)">
<path d="M11 0.375C4.92339 0.375 0 5.57812 0 12C0 18.4219 4.92339 23.625 11 23.625C17.0766 23.625 22 18.4219 22 12C22 5.57812 17.0766 0.375 11 0.375ZM16.4024 8.33906L14.5972 17.3297C14.4641 17.9672 14.1048 18.1219 13.6036 17.8219L10.8536 15.6797L9.52742 17.0297C9.38105 17.1844 9.25686 17.3156 8.97298 17.3156L9.16815 14.3578L14.2645 9.49219C14.4863 9.28594 14.2157 9.16875 13.923 9.375L7.6246 13.5656L4.91008 12.6703C4.32016 12.4734 4.30685 12.0469 5.03427 11.7469L15.6395 7.425C16.1319 7.2375 16.5621 7.55156 16.4024 8.33906Z" fill="white"/>
</g>
<path d="M35.0859 18H33.7578V7.75781H30.1406V6.57812H38.7031V7.75781H35.0859V18ZM43.8516 18.1562C42.5859 18.1562 41.5859 17.7708 40.8516 17C40.1224 16.2292 39.7578 15.1589 39.7578 13.7891C39.7578 12.4089 40.0964 11.3125 40.7734 10.5C41.4557 9.6875 42.3698 9.28125 43.5156 9.28125C44.5885 9.28125 45.4375 9.63542 46.0625 10.3438C46.6875 11.0469 47 11.9766 47 13.1328V13.9531H41.1016C41.1276 14.9583 41.3802 15.7214 41.8594 16.2422C42.3438 16.763 43.0234 17.0234 43.8984 17.0234C44.8203 17.0234 45.7318 16.8307 46.6328 16.4453V17.6016C46.1745 17.7995 45.7396 17.9401 45.3281 18.0234C44.9219 18.112 44.4297 18.1562 43.8516 18.1562ZM43.5 10.3672C42.8125 10.3672 42.263 10.5911 41.8516 11.0391C41.4453 11.487 41.2057 12.1068 41.1328 12.8984H45.6094C45.6094 12.0807 45.4271 11.4557 45.0625 11.0234C44.6979 10.5859 44.1771 10.3672 43.5 10.3672ZM50.5156 18H49.2188V5.84375H50.5156V18ZM56.8828 18.1562C55.6172 18.1562 54.6172 17.7708 53.8828 17C53.1536 16.2292 52.7891 15.1589 52.7891 13.7891C52.7891 12.4089 53.1276 11.3125 53.8047 10.5C54.487 9.6875 55.401 9.28125 56.5469 9.28125C57.6198 9.28125 58.4688 9.63542 59.0938 10.3438C59.7188 11.0469 60.0312 11.9766 60.0312 13.1328V13.9531H54.1328C54.1589 14.9583 54.4115 15.7214 54.8906 16.2422C55.375 16.763 56.0547 17.0234 56.9297 17.0234C57.8516 17.0234 58.763 16.8307 59.6641 16.4453V17.6016C59.2057 17.7995 58.7708 17.9401 58.3594 18.0234C57.9531 18.112 57.4609 18.1562 56.8828 18.1562ZM56.5312 10.3672C55.8438 10.3672 55.2943 10.5911 54.8828 11.0391C54.4766 11.487 54.237 12.1068 54.1641 12.8984H58.6406C58.6406 12.0807 58.4583 11.4557 58.0938 11.0234C57.7292 10.5859 57.2083 10.3672 56.5312 10.3672ZM69.2578 9.4375V10.2578L67.6719 10.4453C67.8177 10.6276 67.9479 10.8672 68.0625 11.1641C68.1771 11.4557 68.2344 11.7865 68.2344 12.1562C68.2344 12.9948 67.9479 13.6641 67.375 14.1641C66.8021 14.6641 66.0156 14.9141 65.0156 14.9141C64.7604 14.9141 64.5208 14.8932 64.2969 14.8516C63.7448 15.1432 63.4688 15.5104 63.4688 15.9531C63.4688 16.1875 63.5651 16.362 63.7578 16.4766C63.9505 16.5859 64.2812 16.6406 64.75 16.6406H66.2656C67.1927 16.6406 67.9036 16.8359 68.3984 17.2266C68.8984 17.6172 69.1484 18.1849 69.1484 18.9297C69.1484 19.8776 68.7682 20.599 68.0078 21.0938C67.2474 21.5938 66.138 21.8438 64.6797 21.8438C63.5599 21.8438 62.6953 21.6354 62.0859 21.2188C61.4818 20.8021 61.1797 20.2135 61.1797 19.4531C61.1797 18.9323 61.3464 18.4818 61.6797 18.1016C62.013 17.7214 62.4818 17.4635 63.0859 17.3281C62.8672 17.2292 62.6823 17.0755 62.5312 16.8672C62.3854 16.6589 62.3125 16.4167 62.3125 16.1406C62.3125 15.8281 62.3958 15.5547 62.5625 15.3203C62.7292 15.0859 62.9922 14.8594 63.3516 14.6406C62.9089 14.4583 62.5469 14.1484 62.2656 13.7109C61.9896 13.2734 61.8516 12.7734 61.8516 12.2109C61.8516 11.2734 62.1328 10.5521 62.6953 10.0469C63.2578 9.53646 64.0547 9.28125 65.0859 9.28125C65.5339 9.28125 65.9375 9.33333 66.2969 9.4375H69.2578ZM62.4297 19.4375C62.4297 19.901 62.625 20.2526 63.0156 20.4922C63.4062 20.7318 63.9661 20.8516 64.6953 20.8516C65.7839 20.8516 66.5885 20.6875 67.1094 20.3594C67.6354 20.0365 67.8984 19.5964 67.8984 19.0391C67.8984 18.5755 67.7552 18.2526 67.4688 18.0703C67.1823 17.8932 66.6432 17.8047 65.8516 17.8047H64.2969C63.7083 17.8047 63.25 17.9453 62.9219 18.2266C62.5938 18.5078 62.4297 18.9115 62.4297 19.4375ZM63.1328 12.1797C63.1328 12.7786 63.3021 13.2318 63.6406 13.5391C63.9792 13.8464 64.4505 14 65.0547 14C66.3203 14 66.9531 13.3854 66.9531 12.1562C66.9531 10.8698 66.3125 10.2266 65.0312 10.2266C64.4219 10.2266 63.9531 10.3906 63.625 10.7188C63.2969 11.0469 63.1328 11.5339 63.1328 12.1797ZM74.9219 9.28125C75.3021 9.28125 75.6432 9.3125 75.9453 9.375L75.7656 10.5781C75.4115 10.5 75.099 10.4609 74.8281 10.4609C74.1354 10.4609 73.5417 10.7422 73.0469 11.3047C72.5573 11.8672 72.3125 12.5677 72.3125 13.4062V18H71.0156V9.4375H72.0859L72.2344 11.0234H72.2969C72.6146 10.4661 72.9974 10.0365 73.4453 9.73438C73.8932 9.43229 74.3854 9.28125 74.9219 9.28125ZM82.8125 18L82.5547 16.7812H82.4922C82.0651 17.3177 81.638 17.6823 81.2109 17.875C80.7891 18.0625 80.2604 18.1562 79.625 18.1562C78.776 18.1562 78.1094 17.9375 77.625 17.5C77.1458 17.0625 76.9062 16.4401 76.9062 15.6328C76.9062 13.9036 78.2891 12.9974 81.0547 12.9141L82.5078 12.8672V12.3359C82.5078 11.6641 82.362 11.1693 82.0703 10.8516C81.7839 10.5286 81.3229 10.3672 80.6875 10.3672C79.974 10.3672 79.1667 10.5859 78.2656 11.0234L77.8672 10.0312C78.2891 9.80208 78.75 9.6224 79.25 9.49219C79.7552 9.36198 80.2604 9.29688 80.7656 9.29688C81.7865 9.29688 82.5417 9.52344 83.0312 9.97656C83.526 10.4297 83.7734 11.1562 83.7734 12.1562V18H82.8125ZM79.8828 17.0859C80.6901 17.0859 81.3229 16.8646 81.7812 16.4219C82.2448 15.9792 82.4766 15.3594 82.4766 14.5625V13.7891L81.1797 13.8438C80.1484 13.8802 79.4036 14.0417 78.9453 14.3281C78.4922 14.6094 78.2656 15.0495 78.2656 15.6484C78.2656 16.1172 78.4062 16.474 78.6875 16.7188C78.974 16.9635 79.3724 17.0859 79.8828 17.0859ZM97.3672 18V12.4297C97.3672 11.7474 97.2214 11.237 96.9297 10.8984C96.638 10.5547 96.1849 10.3828 95.5703 10.3828C94.763 10.3828 94.1667 10.6146 93.7812 11.0781C93.3958 11.5417 93.2031 12.2552 93.2031 13.2188V18H91.9062V12.4297C91.9062 11.7474 91.7604 11.237 91.4688 10.8984C91.1771 10.5547 90.7214 10.3828 90.1016 10.3828C89.2891 10.3828 88.6927 10.6276 88.3125 11.1172C87.9375 11.6016 87.75 12.3984 87.75 13.5078V18H86.4531V9.4375H87.5078L87.7188 10.6094H87.7812C88.026 10.1927 88.3698 9.86719 88.8125 9.63281C89.2604 9.39844 89.7604 9.28125 90.3125 9.28125C91.651 9.28125 92.526 9.76562 92.9375 10.7344H93C93.2552 10.2865 93.625 9.93229 94.1094 9.67188C94.5938 9.41146 95.1458 9.28125 95.7656 9.28125C96.7344 9.28125 97.4583 9.53125 97.9375 10.0312C98.4219 10.526 98.6641 11.3203 98.6641 12.4141V18H97.3672Z" fill="white"/>
</g>
<defs>
<clipPath id="clip0_14_1997">
<rect width="100" height="24" fill="white"/>
</clipPath>
<clipPath id="clip1_14_1997">
<rect width="22" height="24" fill="white"/>
</clipPath>
</defs>
</svg>
